<svg width="300" height="300" viewBox="0 0 300 300" fill="none" xmlns="http://www.w3.org/2000/svg">
<rect width="300" height="300" fill="#BDBDBD"/>
<path d="M143.75 187.5C131.562 187.5 121.224 183.255 112.734 174.766C104.245 166.276 100 155.938 100 143.75V106.25C100 102.812 101.224 99.8698 103.672 97.4219C106.12 94.974 109.062 93.75 112.5 93.75H190.625C196.667 93.75 201.823 95.8854 206.094 100.156C210.365 104.427 212.5 109.583 212.5 115.625C212.5 121.667 210.365 126.823 206.094 131.094C201.823 135.365 196.667 137.5 190.625 137.5H187.5V143.75C187.5 155.938 183.255 166.276 174.766 174.766C166.276 183.255 155.938 187.5 143.75 187.5ZM112.5 125H175V106.25H112.5V125ZM187.5 125H190.625C193.229 125 195.443 124.089 197.266 122.266C199.089 120.443 200 118.229 200 115.625C200 113.021 199.089 110.807 197.266 108.984C195.443 107.161 193.229 106.25 190.625 106.25H187.5V125ZM100 206.25V193.75H200V206.25H100Z" fill="#212121"/>
</svg>